HIERARCHY
ROOT hip
{
  OFFSET 0 0 0
  CHANNELS 6 Xposition Yposition Zposition Zrotation Yrotation Xrotation
  JOINT abdomen
  {
    OFFSET 0 20.6881 -0.73152
    CHANNELS 3 Zrotation Xrotation Yrotation
    JOINT chest
    {
      OFFSET 0 11.7043 -0.48768
      CHANNELS 3 Zrotation Xrotation Yrotation
      JOINT neck
      {
        OFFSET 0 22.1894 -2.19456
        CHANNELS 3 Zrotation Xrotation Yrotation
        JOINT head
        {
          OFFSET -0.24384 7.07133 1.2192
          CHANNELS 3 Zrotation Xrotation Yrotation
          JOINT leftEye
          {
            OFFSET 4.14528 8.04674 8.04672
            CHANNELS 3 Zrotation Xrotation Yrotation
            End Site
            {
              OFFSET 1 0 0
            }
          }
          JOINT rightEye
          {
            OFFSET -3.6576 8.04674 8.04672
            CHANNELS 3 Zrotation Xrotation Yrotation
            End Site
            {
              OFFSET 1 0 0
            }
          }
        }
      }
      JOINT rCollar
      {
        OFFSET -2.68224 19.2634 -4.8768
        CHANNELS 3 Zrotation Xrotation Yrotation
        JOINT rShldr
        {
          OFFSET -8.77824 -1.95073 1.46304
          CHANNELS 3 Zrotation Xrotation Yrotation
          JOINT rForeArm
          {
            OFFSET -28.1742 -1.7115 0.48768
            CHANNELS 3 Zrotation Xrotation Yrotation
            JOINT rHand
            {
              OFFSET -22.5879 0.773209 7.07136
              CHANNELS 3 Zrotation Xrotation Yrotation
              JOINT rThumb1
              {
                OFFSET -1.2192 -0.487915 3.41376
                CHANNELS 3 Zrotation Xrotation Yrotation
                JOINT rThumb2
                {
                  OFFSET -3.37035 -0.52449 3.41376
                  CHANNELS 3 Zrotation Xrotation Yrotation
                  End Site
                  {
                    OFFSET -1.78271 -1.18214 1.43049
                  }
                }
              }
              JOINT rIndex1
              {
                OFFSET -7.75947 0.938293 5.60832
                CHANNELS 3 Zrotation Xrotation Yrotation
                JOINT rIndex2
                {
                  OFFSET -2.54057 -0.884171 1.56538
                  CHANNELS 3 Zrotation Xrotation Yrotation
                  End Site
                  {
                    OFFSET -1.62519 -0.234802 1.16502
                  }
                }
              }
              JOINT rMid1
              {
                OFFSET -8.24714 1.18213 3.41376
                CHANNELS 3 Zrotation Xrotation Yrotation
                JOINT rMid2
                {
                  OFFSET -3.10165 -0.590103 1.0647
                  CHANNELS 3 Zrotation Xrotation Yrotation
                  End Site
                  {
                    OFFSET -2.48547 -0.328903 0.83742
                  }
                }
              }
              JOINT rRing1
              {
                OFFSET -8.82822 0.546677 1.51678
                CHANNELS 3 Zrotation Xrotation Yrotation
                JOINT rRing2
                {
                  OFFSET -2.60934 -0.819778 -0.0198488
                  CHANNELS 3 Zrotation Xrotation Yrotation
                  End Site
                  {
                    OFFSET -2.33842 -0.294052 0.168128
                  }
                }
              }
              JOINT rPinky1
              {
                OFFSET -8.27202 -0.0477905 -0.4584
                CHANNELS 3 Zrotation Xrotation Yrotation
                JOINT rPinky2
                {
                  OFFSET -1.82734 -0.647385 -0.700984
                  CHANNELS 3 Zrotation Xrotation Yrotation
                  End Site
                  {
                    OFFSET -1.69225 -0.51767 -0.607171
                  }
                }
              }
            }
          }
        }
      }
      JOINT lCollar
      {
        OFFSET 2.68224 19.2634 -4.8768
        CHANNELS 3 Zrotation Xrotation Yrotation
        JOINT lShldr
        {
          OFFSET 8.77824 -1.95073 1.46304
          CHANNELS 3 Zrotation Xrotation Yrotation
          JOINT lForeArm
          {
            OFFSET 28.1742 -1.7115 0.48768
            CHANNELS 3 Zrotation Xrotation Yrotation
            JOINT lHand
            {
              OFFSET 22.5879 0.773209 7.07136
              CHANNELS 3 Zrotation Xrotation Yrotation
              JOINT lThumb1
              {
                OFFSET 1.2192 -0.487915 3.41376
                CHANNELS 3 Zrotation Xrotation Yrotation
                JOINT lThumb2
                {
                  OFFSET 3.37035 -0.52449 3.41376
                  CHANNELS 3 Zrotation Xrotation Yrotation
                  End Site
                  {
                    OFFSET 1.78271 -1.18214 1.43049
                  }
                }
              }
              JOINT lIndex1
              {
                OFFSET 7.75947 0.938293 5.60832
                CHANNELS 3 Zrotation Xrotation Yrotation
                JOINT lIndex2
                {
                  OFFSET 2.54057 -0.884171 1.56538
                  CHANNELS 3 Zrotation Xrotation Yrotation
                  End Site
                  {
                    OFFSET 1.62519 -0.234802 1.16502
                  }
                }
              }
              JOINT lMid1
              {
                OFFSET 8.24714 1.18213 3.41376
                CHANNELS 3 Zrotation Xrotation Yrotation
                JOINT lMid2
                {
                  OFFSET 3.10165 -0.590103 1.0647
                  CHANNELS 3 Zrotation Xrotation Yrotation
                  End Site
                  {
                    OFFSET 2.48547 -0.328903 0.83742
                  }
                }
              }
              JOINT lRing1
              {
                OFFSET 8.82822 0.546677 1.51678
                CHANNELS 3 Zrotation Xrotation Yrotation
                JOINT lRing2
                {
                  OFFSET 2.60934 -0.819778 -0.0198488
                  CHANNELS 3 Zrotation Xrotation Yrotation
                  End Site
                  {
                    OFFSET 2.33842 -0.294052 0.168128
                  }
                }
              }
              JOINT lPinky1
              {
                OFFSET 8.27202 -0.0477905 -0.4584
                CHANNELS 3 Zrotation Xrotation Yrotation
                JOINT lPinky2
                {
                  OFFSET 1.82734 -0.647385 -0.700984
                  CHANNELS 3 Zrotation Xrotation Yrotation
                  End Site
                  {
                    OFFSET 1.69225 -0.51767 -0.607171
                  }
                }
              }
            }
          }
        }
      }
    }
  }
  JOINT rButtock
  {
    OFFSET -8.77824 4.35084 1.2192
    CHANNELS 3 Zrotation Xrotation Yrotation
    JOINT rThigh
    {
      OFFSET 0 -1.70687 -2.19456
      CHANNELS 3 Zrotation Xrotation Yrotation
      JOINT rShin
      {
        OFFSET 0 -36.8199 0.73152
        CHANNELS 3 Zrotation Xrotation Yrotation
        JOINT rFoot
        {
          OFFSET 0.73152 -45.1104 -5.12064
          CHANNELS 3 Zrotation Xrotation Yrotation
          End Site
          {
            OFFSET -1.1221 -3.69964 12.103
          }
        }
      }
    }
  }
  JOINT lButtock
  {
    OFFSET 8.77824 4.35084 1.2192
    CHANNELS 3 Zrotation Xrotation Yrotation
    JOINT lThigh
    {
      OFFSET 0 -1.70687 -2.19456
      CHANNELS 3 Zrotation Xrotation Yrotation
      JOINT lShin
      {
        OFFSET 0 -36.8199 0.73152
        CHANNELS 3 Zrotation Xrotation Yrotation
        JOINT lFoot
        {
          OFFSET -0.73152 -45.1104 -5.12064
          CHANNELS 3 Zrotation Xrotation Yrotation
          End Site
          {
            OFFSET 1.1221 -3.69964 12.103
          }
        }
      }
    }
  }
}
MOTION
Frames:	4
Frame Time:	0.00833333
0.0 0.0 0.0 0.0 0.0 0.0 0.0 0.0 0.0 0.0 0.0 0.0 0.0 0.0 0.0 0.0 0.0 0.0 0.0 0.0 0.0 0.0 0.0 0.0 0.0 0.0 0.0 0.0 0.0 0.0 0.0 0.0 0.0 0.0 0.0 0.0 0.0 0.0 0.0 0.0 0.0 0.0 0.0 0.0 0.0 0.0 0.0 0.0 0.0 0.0 0.0 0.0 0.0 0.0 0.0 0.0 0.0 0.0 0.0 0.0 0.0 0.0 0.0 0.0 0.0 0.0 0.0 0.0 0.0 0.0 0.0 0.0 0.0 0.0 0.0 0.0 0.0 0.0 0.0 0.0 0.0 0.0 0.0 0.0 0.0 0.0 0.0 0.0 0.0 0.0 0.0 0.0 0.0 0.0 0.0 0.0 0.0 0.0 0.0 0.0 0.0 0.0 0.0 0.0 0.0 0.0 0.0 0.0 0.0 0.0 0.0 0.0 0.0 0.0 0.0 0.0 0.0 0.0 0.0 0.0 0.0 0.0 0.0 0.0 0.0 0.0 0.0 0.0 0.0 0.0 0.0 0.0
93.9457 83.4216 -4.6791 6.250746 -70.877524 2.21696 -0.210198 -7.676664 159.28671 0.041493 -4.218305 -155.037358 -9.568279 17.560327 -100.568743 18.28252 14.459705 102.777834 -0.002668 -0.0 0.001459 0.00263 -0.0 -0.000987 -59.826439 -86.722149 -81.626953 -153.603868 -66.073196 -157.495088 112.994408 62.884875 -124.282155 -132.206503 70.478988 110.895969 6.464455 -6.452344 -0.634953 -93.826161 21.908845 84.473082 167.122005 -67.040008 108.17154 -168.863872 -35.8612 115.261437 173.126146 -66.297996 137.617739 10.816937 -23.468399 -1.269609 0.000296 -0.018726 -0.004136 11.574412 -33.430421 -4.017354 -141.700253 1.898622 -138.684824 -127.889547 -27.843208 -125.492784 158.514047 -30.702178 -167.03849 54.430248 70.246996 -47.634676 -2.690824 49.112046 -10.84082 6.180794 29.623287 -1.696269 -4.417337 -4.400444 0.512263 -16.768922 -30.80728 16.044367 100.824554 37.732756 -85.161203 173.411231 -26.124815 -114.786011 169.088925 -33.247353 -145.37581 83.336311 63.988433 -75.209815 145.119169 0.185509 179.186514 -9.105002 -11.189046 10.520974 -0.551093 1.455678 -0.50823 85.233148 -53.926581 84.725284 0.00125 -6.5e-05 0.000625 0.719057 -11.182557 -176.297259 4.035475 -21.201171 84.357886 153.589085 21.446606 -67.575674 0.00125 -6.5e-05 0.000625 0.213894 -7.765042 4.064154 7.384849 13.41586 79.684333 -154.735157 -0.4349 79.317608
93.7547 83.4557 -4.7765 6.150067 -71.272762 1.874131 0.340952 -6.268241 3.119696 1.081139 -1.333907 5.815503 -7.089716 8.815145 -16.020479 14.389949 -11.025643 23.906752 -0.001677 0.0 -0.000337 -0.001023 0.0 -0.002011 4.223374 -44.025504 -8.501977 60.423759 45.899413 -35.442974 -96.849426 64.949611 61.88366 121.281213 -66.557635 104.567934 2.012171 -1.996756 -0.275654 8.941051 -13.901317 -8.563405 -166.825555 -43.973199 122.059851 -20.378983 44.760447 11.916775 -39.289494 53.365598 32.878841 10.448256 -21.519439 -1.454611 -0.006038 3.470153 1.091272 -154.514604 12.777991 170.108805 44.723501 86.37823 -5.35595 0.461342 -2.346935 -1.800837 9.651465 34.836277 -11.198801 59.215198 64.29188 -113.014121 -171.180869 -10.068742 164.162247 18.199916 61.203915 -9.538958 -9.38967 -9.381241 0.681858 124.997907 -10.792119 -112.779603 0.328194 0.529706 -0.186362 -7.414876 5.814865 -0.496424 159.365978 -2.685714 -142.596203 -2.796532 1.271213 -0.534375 0.023118 -1.726025 0.542576 156.435715 -34.935574 -175.982352 149.197108 25.859229 145.262562 153.606687 29.678977 145.107668 0.0 0.000739 -0.000628 0.122057 -14.385379 -161.263457 -3.479152 -24.750572 90.504647 167.047913 -10.820917 -45.619062 179.997881 75.750684 0.002187 179.377695 61.808335 -0.0 7.557775 21.530404 65.281903 -178.195599 -65.22462 74.249893
93.58070000000001 83.4866 -4.893 5.992624 -71.685017 1.625157 0.638568 -9.015591 0.126349 1.464661 -1.809215 12.93783 -0.56247 30.661288 169.931432 -15.697586 36.810562 -155.249723 -0.002245 -0.0 0.002218 -0.002245 -0.0 0.002218 -6.043286 25.598953 7.235155 6.371987 62.870671 73.034359 138.371824 19.268516 -176.948128 -152.91258 62.249778 129.817381 -89.136252 38.427358 50.29906 177.565728 -43.328063 76.151706 -46.20855 39.6521 36.319263 -162.83276 -8.602583 112.069039 -160.67321 -6.667699 143.245703 -166.324074 -13.980878 143.686135 -145.110727 -0.627975 -178.932295 -152.894393 -21.492013 -176.015314 -12.840641 -24.808239 -12.209295 -165.947495 71.058407 -148.347285 0.048878 0.292485 -0.064283 -77.826125 32.710233 7.951312 -172.318462 58.691452 -125.141235 -149.20413 -39.875997 -137.628381 78.030715 38.688947 -42.412704 87.009 -3.537612 -66.599385 -21.12192 -37.641735 5.921135 -125.532262 -63.149419 -64.527847 36.036492 51.723346 -29.831446 105.14489 61.655664 -96.23085 145.099511 -1.523036 178.649689 -2.847008 -43.646063 17.838171 25.538009 -38.087505 24.598309 7.222948 -22.470167 9.584408 -179.97475 75.748744 -0.020775 177.840103 58.446511 -177.465814 3.912918 -30.12706 110.211951 30.47754 -3.506492 46.570166 0.045175 -0.001247 0.033881 -1.342447 -19.339582 -0.469816 10.211505 34.236981 101.917363 -69.324455 -46.712297 -158.627693
